<svg xmlns="http://www.w3.org/2000/svg" width="1600" height="900" viewBox="0 0 1600 900">
  <defs>
    <linearGradient id="g" x1="0" y1="0" x2="1" y2="1">
      <stop offset="0" stop-color="#0a0a0a"/>
      <stop offset="1" stop-color="#131313"/>
    </linearGradient>
  </defs>
  <rect width="1600" height="900" fill="url(#g)"/>
  <text x="80" y="120" fill="#a3a3a3" font-size="48" font-family="system-ui, -apple-system, Segoe UI, Roboto">Social — Leaderboard</text>
  <rect x="100" y="180" width="440" height="220" rx="24" fill="#2a1b3c" opacity="0.7"/>
  <rect x="580" y="180" width="440" height="220" rx="24" fill="#1d2f55" opacity="0.7"/>
  <rect x="1060" y="180" width="440" height="220" rx="24" fill="#3a2b10" opacity="0.7"/>
  <text x="130" y="230" fill="#d0bfff" font-size="28">Alex Morgan</text>
  <text x="610" y="230" fill="#bed3ff" font-size="28">Sarah Chen</text>
  <text x="1090" y="230" fill="#ffd680" font-size="28">Marcus Wolf</text>
  <g fill="#777">
    <circle cx="120" cy="500" r="16"/>
    <circle cx="120" cy="560" r="16"/>
    <circle cx="120" cy="620" r="16"/>
    <circle cx="120" cy="680" r="16"/>
  </g>
  <text x="160" y="506" fill="#cfcfcf" font-size="24">Global Leaderboard</text>
  <rect x="150" y="540" width="1300" height="2" fill="#222"/>
  <rect x="150" y="600" width="1300" height="2" fill="#222"/>
  <rect x="150" y="660" width="1300" height="2" fill="#222"/>
  <text x="150" y="580" fill="#a2ff9e" font-size="22">Win rate: 78% · +342.5%</text>
  <text x="150" y="640" fill="#9ed7ff" font-size="22">Win rate: 74% · +218.3%</text>
  <text x="150" y="700" fill="#ffd68a" font-size="22">Win rate: 71% · +189.7%</text>
</svg>
